<?xml version="1.0" encoding="UTF-8"?>
<svg version="1.1" viewBox="0 0 2048 870" width="1280" height="1280" xmlns="http://www.w3.org/2000/svg">
<path transform="translate(0)" d="m0 0h2048v870h-2048z" fill="#FEFEFE"/>
<path transform="translate(548,267)" d="m0 0h11l21 3 18 6 17 9 11 8 8 7 7 8 10 14 9 19 5 18 1 9v23l-3 14-5 16-8 16-8 11-12 13-13 10-16 9-14 6-17 4-10 1h-10l-19-3-18-6-16-8-13-9-13-12-12-16-8-16-5-15-3-16v-21l4-20 4-12 7-14 8-12 11-12 10-9 14-9 14-7 16-5z" fill="#0751B8"/>
<path transform="translate(119,179)" d="m0 0h62l4 9 21 80 15 56 6 22 1 2 11-43 21-79 12-45 2-2h56l-2 9-21 70-20 68-20 67-11 38-1 106-1 22h-45l-14-1-1-122-4-17-17-57-19-64-24-81-10-34z" fill="#0750B8"/>
<path transform="translate(551,308)" d="m0 0h11l17 2 19 5 12 5 10 5 5 5v23l-4 25-5 18-8 18-7 12-9 11-10 11-11 8-14 9-6-1-17-11-12-11-10-11-9-14-8-17-5-15-5-23-1-9-1-22 2-4 16-8 16-6 13-3z" fill="#7C7E83"/>
<path transform="translate(432,265)" d="m0 0 7 4 7 7 1 4-4 6-9 11-8 13-8 17-5 16-4 22v28l4 20 5 16 7 16 7 12 9 12 9 10 14 14 10 7 14 8 16 7 17 5 17 3h30l23-4 17-5 10-4h5l6 12v5l-7 4-15 6-22 6-14 2h-32l-20-3-21-6-15-6-16-9-14-10-14-12-10-10-13-17-8-13-9-20-7-24-3-16-1-9v-25l3-20 5-19 8-19 8-15 10-15 8-10z" fill="#7C7E82"/>
<path transform="translate(357,335)" d="m0 0 7 1 6 4-3 25v30l4 25 6 21 8 19 9 16 14 20 12 13 10 10 11 9 14 10 18 10 21 8 22 6 24 3h20l29-3 17-4 18-6 20-9 22-13 11-9 11-10 7-8 9-11 10-15 9-16 8-18 6-19 4-23 2-18 4-2 6 1 2 2v11l-2 19-5 22-9 24-10 19-12 18-11 14-11 12-8 7-15 12-21 13-23 11-21 7-17 4-13 2-12 1h-22l-23-3-24-6-18-6-17-8-19-12-13-10-13-11-13-13-11-14-12-18-9-17-8-21-7-26-3-22v-27l3-26z" fill="#0651E6"/>
<path transform="translate(551,308)" d="m0 0h11l17 2 19 5 12 5 10 5 5 5v23l-4 25-5 18-8 18-7 12-9 11-10 11-11 8-14 9-6-1-17-11-12-11-10-11-9-14-8-17-5-15-5-23-1-9-1-22 2-4 16-8 16-6 13-3zm-11 19-15 3-19 7-3 3v17l4 21 7 21 8 15 8 10 9 10 12 9 4 1 11-7 12-11 10-14 8-16 5-15 5-24 1-17-3-3-13-5-18-4-8-1z" fill="#FEFEFE"/>
<path transform="translate(536,213)" d="m0 0h33l22 3 19 5 16 7 17 9 18 13 12 11 9 9 12 17 8 14 8 17 7 21 3 15 1 11v21l-2 22-5 20-8 20-7 14-5 5-14-7-1-3 10-22 7-21 3-18v-34l-3-19-7-23-10-19-10-14-7-7-6-7-11-9-11-8-16-9-14-6-14-4-22-3h-27l-22 3h-6l-4-8-2-6v-4l10-3z" fill="#7C7E82"/>
<path transform="translate(989,448)" d="m0 0h59l7 2 4 6 2 10v17l-3 5-2 2v6l5 10v16l-3 12-6 5-5 1h-58z" fill="#0751BA"/>
<path transform="translate(541,242)" d="m0 0h31l16 3 3 3-6 13-2 1-14-3h-27l-23 5-16 6-16 9-11 8-11 10-10 14-9 15-6 15-4 16-1 6v31l4 17 6 16 9 17 8 10 9 10 12 11 3 2v5l-8 9-5-2-11-9-10-10-10-13-9-15-8-18-6-21-1-8v-31l5-25 6-16 10-18 10-14 12-13 12-10 16-10 12-6 21-7z" fill="#0852BA"/>
<path transform="translate(1268,448)" d="m0 0h9l3 7 11 46 1 2 3-12 6-30 3-11 4-2h13l3 1 4 14 8 39v3h2l2-11 8-36 3-9 10-1h9l-1 8-8 31-12 46-3 6-1 1h-16l-3-6-9-40-3-8-2 4-5 24-5 20-3 6h-14l-4-2-7-24-15-60-1-5z" fill="#0952B9"/>
<path transform="translate(1168,448)" d="m0 0h59l8 2 4 7 1 4v39l-5 6-5 3h-2l3 7 8 12 7 10v2h-20l-4-2-11-16-7-10-3-2h-12l-1 1-1 29h-15l-4-1z" fill="#0852BA"/>
<path transform="translate(649,282)" d="m0 0 4 1 7 7 11 15 7 12 8 19 5 18 1 6v31l-4 20-7 21-10 19-9 13-11 12-11 10-18 12-16 8-21 7-11 2-11 1h-16l-3-3 1-10 2-4 25-2 19-4 15-6 13-7 14-10 13-13 10-14 11-21 6-21 1-8v-29l-4-20-6-16-8-15-7-9-8-10 1-4z" fill="#0952BA"/>
<path transform="translate(1411,448)" d="m0 0h28l3 4 10 32 15 51 1 5h-17l-4-2-4-13-2-3-32-1-8 18-1 1h-17l-1-3 12-39 15-49z" fill="#0952B9"/>
<path transform="translate(630,216)" d="m0 0 6 1 12 6 16 11 11 9 16 16 13 17 9 14 8 17 6 17 5 18 3 16 1 29-3 22-4 18-5 15-9 20-8 14-10 14-12 14-10 10-17 13-19 11-17 8-21 7-17 4-18 2h-24l-22-3-20-5-19-7-6-4v-5l9 2 21 7 22 5 15 2h24l21-3 24-7 21-9 20-11 12-9 10-9 11-11 11-15 9-15 7-14 8-22 5-21 2-17v-21l-2-20-5-19-7-19-8-17-9-13-8-10-9-10-12-12-13-10-20-12-6-4z" fill="#0765E6"/>
<path transform="translate(1665,448)" d="m0 0h16l1 1v35l32-1 1-34 2-1h16l1 1v91h-14l-5-1-1-34-32-1v21l-1 15h-18v-91z" fill="#0852B9"/>
<path transform="translate(1086,448)" d="m0 0h62l1 1v17h-46v19h33v17l-1 1-32 1v17l45 1 1 1v17h-66v-91z" fill="#0752BB"/>
<path transform="translate(810,448)" d="m0 0h48l6 3 4 9 1 4v9l-3 2h-16l-2-7-2-1h-29l-1 46 1 8h31l2-7 1-1h15l3 3v9l-4 9-5 4-8 2h-42l-9-3-4-6-1-10v-45l1-19 4-6z" fill="#0A53B9"/>
<path transform="translate(1579,448)" d="m0 0h48l7 2 4 5 2 5 1 10-2 5h-16l-4-7-4-1-27-1v33l1 23 30-1 3-7 1-1h14l4 4-1 11-3 6-6 5-4 1h-47l-7-3-3-4-1-3-1-15v-55l4-8z" fill="#0952B9"/>
<path transform="translate(535,177)" d="m0 0h35l23 3 20 5 19 7 19 9 18 11 13 10 14 12 7 7 9 11 10 14 9 14v2l-9 4-5-2-6-10-9-12-12-14-11-11-11-9-15-10-17-9-20-8-23-6-12-2-12-1h-31l-21 2-3-3-3-5 1-4 10-3z" fill="#0952E2"/>
<path transform="translate(889,448)" d="m0 0h15l5 8 11 22 7 13v2h2l1-5 19-38 4-2h17l-2 6-16 32-9 16-5 12-1 25-2 1h-11l-6-1-1-24-7-17-12-24-12-22-1-3z" fill="#0952B9"/>
<path transform="translate(532,199)" d="m0 0 8 1 1 4-9 3-25 5-18 6-17 8-19 12-11 9-10 9-11 12-13 19-10 18-8 20-5 19-2 12-1 11v20l2 18 6 25 7 18 10 21 2 3v6l-5-1-6-7-12-25-8-25-4-23-1-18 2-24 4-23 5-16 9-21 8-14 10-14 12-14 9-9 14-11 10-7 15-9 17-8 19-6 14-3z" fill="#0553E7"/>
<path transform="translate(1481,448)" d="m0 0h70l1 5-1 12-1 1-25 1v72l-1 1h-18l-1-71-1-2-18-1-7-2v-15z" fill="#0A52B9"/>
<path transform="translate(357,335)" d="m0 0 7 1 6 4-3 25v30l4 25 6 21 8 19 9 16 14 20 12 13 10 10 10 8-2 2-5-1-8-6-6-4-1-2-8-4-3-3h-2v-4h-2v-2l-6-2-7-7-10-15-9-17-8-21-7-26-3-22v-27l3-26z" fill="#0A53BA"/>
<path transform="translate(393,337)" d="m0 0h1v9l-3 20v27l3 18 7 25 8 16 10 16 3 4v2h2l4 6v2h2l8 10 2 1v2l4 2 11 11 11 8 6 4 7 4 12 5 20 6 19 3 9 2 9 1h20l23-5 10-4 9-3 12-3 1-5-1-3h-9l-14 4-11 2-18 4-16 1-21-2-26-7-16-6-20-11-11-7-12-11-12-12-7-10-7-12-5-11-5-14-1-17 2 4 5 16 7 16 7 12 9 12 9 10 14 14 10 7 14 8 16 7 17 5 17 3h30l23-4 17-5 10-4h5l6 12v5l-7 4-15 6-22 6-14 2h-32l-20-3-21-6-15-6-16-9-14-10-14-12-10-10-13-17-8-13-9-20-7-24-3-16-1-9v-25l3-20z" fill="#8E8F95"/>
<path transform="translate(702,467)" d="m0 0h2l3 5-1 5-9 13-12 14-10 10-17 13-19 11-17 8-21 7-17 4-18 2h-24l-22-3-20-5-19-7-6-4v-5l9 2 21 7 22 5 15 2h24l21-3 24-7 21-9 20-11 12-9 10-9 11-11 11-15z" fill="#0553E7"/>
<path transform="translate(395,498)" d="m0 0 2 1v2l4 1 2 1v2h2v4l3-1 5 5 6 3v2l5 2 7 6 6 2 5 1 15 10 16 9 21 8 22 6 24 3h20l22-2h7l-4 2-6 2-8 1h-36l-18-3-11-3 1 3-1 2 12 2 3 4 9 2v1h-8l-23-4-21-7-17-8-19-12-13-10-13-11-13-13-8-10z" fill="#0652E6"/>
<path transform="translate(729,338)" d="m0 0h2l4 20 1 29-3 22-4 18-5 15-9 20-7 12-4-4-1-4 8-16 9-24 5-21 2-17v-21l-1-12v-12h2z" fill="#0965E3"/>
<path transform="translate(747,381)" d="m0 0 6 1 2 2v11l-2 19-5 22-9 24-8 15-2 1 2-6 2-7-3-5 1-8 2-5v-8l5-18 4-27 1-9z" fill="#0953BA"/>
<path transform="translate(376,348)" d="m0 0h1l3 14 2-4v29l2 18 6 25 7 18 10 21 2 3v6l-5-1-6-7-12-25-8-25-4-23-1-18 2-24z" fill="#0866E5"/>
<path transform="translate(535,177)" d="m0 0h35l23 3-4 3-2 5 8 3v1h-9l-7-2-11-1h-30l-17 3-7-1-3-5 1-4 10-3z" fill="#0751B9"/>
<path transform="translate(551,355)" d="m0 0h7l6 4 3 6v6l-2 4-3 2 1 13v13l-1 1h-14l-2-1v-10l1-6v-10l-4-5-1-7 4-6z" fill="#FEFEFE"/>
<path transform="translate(648,523)" d="m0 0 2 1-4 5-1 3-12 4-9 4-12 5-17 5-30 4-15 1-2 2 15 1v1h-21l-22-3-20-5-19-7-6-4v-5l9 2 21 7 22 5 15 2h24l21-3 24-7 21-9z" fill="#0665E7"/>
<path transform="translate(1188,466)" d="m0 0h29l3 1 1 14-1 9-2 1-29 1-2-1v-24z" fill="#FEFEFE"/>
<path transform="translate(599,560)" d="m0 0h6l-2 6-7 6-12 3-27 3h-9l-22-3-8-1 2-2-2-2-12-3v-5l-2-1 10 2 13 3 8 1h36l13-2 5-1v-2z" fill="#0650B8"/>
<path transform="translate(719,386)" d="m0 0h1v13l-2 14-6 21-8 18-5 10-5 5-14-7-1-3 10-22 7-21h1v10l-4 13-3 9 1 6h4l2-6 6-9 6-16 5-21 4-4z" fill="#8D8E94"/>
<path transform="translate(420,264)" d="m0 0 2 3-13 18-12 22-8 21-5 21-3 16-2-4-2-7v-12l5-21 10-24 9-16 6-9 5 1z" fill="#0754E5"/>
<path transform="translate(1008,466)" d="m0 0h30l3 1v17l-2 1h-30l-1-1z" fill="#FEFEFE"/>
<path transform="translate(1009,503)" d="m0 0h30l2 2v15l-2 2h-30l-1-1v-17z" fill="#FEFEFE"/>
<path transform="translate(699,238)" d="m0 0 5 5 9 10 16 24 2 5-9 4-5-2-6-10-9-12 4-1 3-4 1-2-8-7-5-6v-2h2z" fill="#0952E1"/>
<path transform="translate(1423,468)" d="m0 0 3 1 4 9 6 21v4h-22l1-8z" fill="#FEFEFE"/>
<path transform="translate(702,467)" d="m0 0h2l3 5-1 5-9 13-12 14-10 10-4 1v-2l-4 1-4 3-2-1 4-5 8-7 12-12 11-15z" fill="#0854E5"/>
<path transform="translate(663,253)" d="m0 0 4 2 15 15 12 17 8 14 8 17 7 21 3 15v10h-1l-1-9-4-4-5-20-7-22-10-17-6-9-8-10-5-9-10-10z" fill="#8E8F95"/>
<path transform="translate(536,213)" d="m0 0h33l22 3 19 5 16 7 17 9 15 11-2 1-15-10-11-6-11-4-21-8-17-4-10-1h-35l-18 4-7 3h-3l-1-4 10-3z" fill="#8E8F95"/>
<path transform="translate(648,523)" d="m0 0 2 1-4 5-1 3-12 4-9 4-12 5-17 5-30 4-15 1-2 2h-11v-4l6-1 23-1 21-3 24-7 21-9z" fill="#0565E7"/>
<path transform="translate(670,413)" d="m0 0 2 4-5 13-10 18-5 7-1 7-10 14-12 2-4 1 1-4 9-7 11-11 10-14 11-21z" fill="#0652E6"/>
<path transform="translate(453,444)" d="m0 0 5 5 9 11 10 10 9 7v5l-8 9-5-2-6-5 2-1 4 1 3-2-2-7-7-8-13-13z" fill="#0D67E3"/>
<path transform="translate(444,275)" d="m0 0 3 3-2 6-9 10-10 16-8 17-5 16-3 15h-1v-10l4-17 2-8 5-12 6-10 4-7 6-7 5-11z" fill="#8E8F95"/>
<path transform="translate(505,364)" d="m0 0 2 1 7 24 9 20 8 11 6 7 3 2v2l5 2 5 4 11 1 1 2-7 4-6-2-13-11-9-10-9-14-7-16-5-17z" fill="#8D8E94"/>
<path transform="translate(649,282)" d="m0 0 4 1 7 7 11 15 3 5-1 2-3-4v-2l-5-2-8-8-5-2-1 7-1 3-5-5-4-5 1-4z" fill="#0B67E4"/>
<path transform="translate(660,276)" d="m0 0 4 2 7 7 4 6 7 10 12 24 7 26 1 9v31l-1 12-2 6h-1l1-13v-34l-3-19-7-23-10-19-10-14-7-7z" fill="#8E8F95"/>
<path transform="translate(489,258)" d="m0 0 3 3-11 7-7 4-11 10h-2l-2 4-5 5-8 9-9 15-5 9-3 1 2-6 10-17 9-12 11-12 12-10z" fill="#1357DB"/>
<path transform="translate(361,424)" d="m0 0 2 3 5 13 4 9 3 12 8 16 10 16 1 4-3-1-11-17-9-17-8-21-3-12z" fill="#0954E3"/>
<path transform="translate(453,332)" d="m0 0h1l-1 9-4 13-3 16v18l3 17 5 16 9 16-1 2-4-4-8-16-5-17-2-12v-21l4-20 4-12z" fill="#0B67E4"/>
<path transform="translate(536,231)" d="m0 0h41l21 5 10 4 4 3-5-1-17-5-22-3h-27l-22 3h-6l3-3z" fill="#8E8F95"/>
<path transform="translate(507,573)" d="m0 0 9 1 6 1h14l16 2h8l14-2h11l18-2-3 2-23 4-12 1h-22l-23-3-13-3z" fill="#0665E7"/>
<path transform="translate(611,472)" d="m0 0 2 1-10 6-11 5-16 5-16 2h-10l-19-3-18-6-4-3 5 1 19 6 13 2h11l18-2 13-4 9-3z" fill="#0E68E2"/>
<path transform="translate(538,188)" d="m0 0h30l15 2 10 3v1l-24-2h-31l-21 2-2-1 1-2 12-1z" fill="#0B67E4"/>
<path transform="translate(499,558)" d="m0 0 22 5 19 2h20l22-2h7l-4 2-6 2-8 1h-36l-18-3-18-5z" fill="#196BDB"/>
<path transform="translate(547,501)" d="m0 0 1 4v7l2 1h12l24-4 15-4 10-4 3 1-10 5-19 6-11 2-11 1h-16l-3-3 1-10z" fill="#0866E6"/>
<path transform="translate(582,551)" d="m0 0 4 1v3h-2v2l-21 2-18-1 4-4 26-2z" fill="#0852BA"/>
<path transform="translate(527,418)" d="m0 0 4 2 6 7 3 2v2l5 2 5 4 11 1 1 2-7 4-6-2-13-11-9-10z" fill="#8C8D93"/>
<path transform="translate(537,257)" d="m0 0h28v1l-23 1-23 5-16 6-8 4-8 1 3-3 8-4v2l14-7 18-5z" fill="#0665E7"/>
<path transform="translate(496,284)" d="m0 0v3l-9 7-12 11-6 8h-2l-2 5-8 13-3 1 2-5 9-15 12-13 10-9z" fill="#0A59E3"/>
<path transform="translate(1632,534)" d="m0 0h3l-2 4-6 2h-47v-1l6-1 34-1z" fill="#0465E9"/>
<path transform="translate(670,413)" d="m0 0 2 4-5 13-10 18-5 5-8 9-2-1 8-9 9-14 8-16z" fill="#0A5AE4"/>
<path transform="translate(582,549)" d="m0 0m-7 1h7v2l-17 2-15 1-2 2h-11v-4l6-1 23-1z" fill="#0465E9"/>
<path transform="translate(410,500)" d="m0 0 7 6 17 17h-6l-8-7v-2l-3-1v-2h-2l-6-9z" fill="#176ADB"/>
<path transform="translate(711,255)" d="m0 0 4 4 1 5h-2l-2 7-4-1-6-9h4l3-4z" fill="#0E54B8"/>
<path transform="translate(659,413)" d="m0 0 1 3-7 16-7 11-12 14-3 3-2-1 10-11 9-13 7-14z" fill="#0766E6"/>
<path transform="translate(668,512)" d="m0 0 3 1 1 3-11 9-5-2-3-3 7-5 3 1z" fill="#0564E8"/>
<path transform="translate(657,466)" d="m0 0 1 3-12 12-13 10h-2v-3h2v-2l9-7 9-8h2l2-4z" fill="#0455E8"/>
<path transform="translate(432,265)" d="m0 0 4 2-2 1-2 4-3 4h-2l-2 5-8 7-2 1 2-5 12-16z" fill="#8D8E94"/>
<path transform="translate(652,521)" d="m0 0 4 1 3 2-1 3-13 8h-2l2-6 5-7z" fill="#0452E8"/>
<path transform="translate(729,338)" d="m0 0h2l3 15-2 2v-2l-2 1-2 4-2-3v-12h2z" fill="#0E57BC"/>
<path transform="translate(1220,533)" d="m0 0 8 3 6-2 6 2 4 2h2v2h-20l-4-2z" fill="#0951E3"/>
<path transform="translate(720,276)" d="m0 0 9 1 2 5-9 4h-2l-2-5 1-4z" fill="#0C66E2"/>
<path transform="translate(599,573)" d="m0 0 4 1-19 4-20 2v-2l10-3h11z" fill="#0766E6"/>
<path transform="translate(611,472)" d="m0 0 2 1-10 6-11 5-16 5v-3l8-3 11-3z" fill="#0565E7"/>
<path transform="translate(482,277)" d="m0 0 3 1-2 4-16 12v-3l6-7z" fill="#0754E2"/>
<path transform="translate(699,245)" d="m0 0 7 6 5 5-2 3h-2l-1 3h-2l-2-9-3-5z" fill="#0465E9"/>
<path transform="translate(547,501)" d="m0 0 1 4v7l2 1 12 1 1 2h-16l-3-3 1-10z" fill="#0565E7"/>
<path transform="translate(751,382)" d="m0 0 4 2v11l-2 4-4-7 1-8z" fill="#0766E6"/>
<path transform="translate(725,272)" d="m0 0 3 3v2h-8l-1 4 1 4-3-1-5-9h2v-2h10z" fill="#185AB8"/>
<path transform="translate(1384,533)" d="m0 0 5 2v2h5l1 1 7-1-2 3h-17l-1-3z" fill="#0451E8"/>
<path transform="translate(539,576)" d="m0 0 17 1 14-1-3 2h-3v2h-20v-2l-5-1z" fill="#045CE8"/>
<path transform="translate(453,332)" d="m0 0h1l-1 9-4 13-2 9h-2l1-10 5-16z" fill="#0766E6"/>
<path transform="translate(537,257)" d="m0 0h28v1l-23 1-20 4 1-3 7-2z" fill="#0E68E2"/>
<path transform="translate(868,465)" d="m0 0h1v8l-3 2h-16l-1-6 1 3h12l5-2z" fill="#0465E9"/>
<path transform="translate(470,308)" d="m0 0 2 1-3 4h-2l-2 5-8 13-3 1 2-5 8-13z" fill="#085CE5"/>
<path transform="translate(699,238)" d="m0 0 10 10-1 2-2-1-1 2-8-9v-2h2z" fill="#1558BF"/>
<path transform="translate(575,486)" d="m0 0m-8 1h8v2l-15 2h-10l1-2z" fill="#0B67E4"/>
<path transform="translate(420,264)" d="m0 0 2 3-9 12-3-1 2-5z" fill="#0665E7"/>
<path transform="translate(442,303)" d="m0 0v3l-10 18-3 1 2-6 9-15z" fill="#1359DD"/>
<path transform="translate(407,272)" d="m0 0h4l-2 4-8 13-2-3 2-5z" fill="#0662E7"/>
<path transform="translate(475,535)" d="m0 0 9 2-1 6-6-1-2-2z" fill="#0453E8"/>
<path transform="translate(540,201)" d="m0 0 1 3-9 3-12 1 5-4 15-1z" fill="#0966E5"/>
<path transform="translate(423,518)" d="m0 0 6 4 7 2 4 4-5 1-9-6-3-3z" fill="#0D56BB"/>
<path transform="translate(410,274)" d="m0 0 1 2-1 2h2l-1 4-2 3-6 1 2-5 4-6z" fill="#0455E8"/>
<path transform="translate(451,419)" d="m0 0h2l10 18-1 2-4-4-7-14z" fill="#0465E9"/>
<path transform="translate(586,254)" d="m0 0 1 3-3 5-15-3v-1l12-1 5-1z" fill="#0465E9"/>
<path transform="translate(1632,534)" d="m0 0h3l-2 4-2 1h-10l-1-2z" fill="#0451E7"/>
<path transform="translate(537,553)" d="m0 0h9l4 2-2 2h-11z" fill="#044FE8"/>
<path transform="translate(647,474)" d="m0 0m-1 1m-1 1m-1 1m-1 1m-1 1m-1 1m-1 1m-1 1 2 1-1 3-7 5h-2v-3h2v-2z" fill="#0757E3"/>
<path transform="translate(659,413)" d="m0 0 1 3-7 16-2-1 6-15z" fill="#1C6CD9"/>
<path transform="translate(706,249)" d="m0 0 5 2 7 9-2 2-4-6-6-4z" fill="#0E57DF"/>
<path transform="translate(454,288)" d="m0 0v3l-8 9-4 4v-3l5-7z" fill="#0754E5"/>
<path transform="translate(656,446)" d="m0 0v3l-5 5-7 8-2-1 8-9 5-5z" fill="#0B5BE3"/>
<path transform="translate(1620,469)" d="m0 0 5 2 4 2 8 1v1h-14z" fill="#0B5CE3"/>
<path transform="translate(1241,537)" d="m0 0 5 1v2h-20v-1z" fill="#0465E9"/>
<path transform="translate(642,445)" d="m0 0v3l-11 12-2-1z" fill="#0465E9"/>
<path transform="translate(453,332)" d="m0 0h1l-1 9-2 5-3 1 3-10z" fill="#156ADE"/>
<path transform="translate(851,513)" d="m0 0h13v1l-7 1-1 2-6-1z" fill="#0465E9"/>
<path transform="translate(732,440)" d="m0 0h2l-1 8-4 4-1-2z" fill="#1159DE"/>
<path transform="translate(662,436)" d="m0 0v3l-4 7-4 2 2-5 3-5z" fill="#0454E8"/>
<path transform="translate(406,284)" d="m0 0 2 1-2 5-3 4-2-1 2-5z" fill="#0864E6"/>
<path transform="translate(497,268)" d="m0 0 1 3-3 3-8 1 3-3z" fill="#0452DD"/>
<path transform="translate(1399,537)" d="m0 0 3 1-2 2h-17v-1z" fill="#0966E5"/>
<path transform="translate(475,535)" d="m0 0 6 1v4l-5 1-1-1z" fill="#0465E9"/>
</svg>
